<svg xmlns="http://www.w3.org/2000/svg" viewBox="0 0 1055.64 206.6"><defs><style>.cls-1{fill:#111;}</style></defs><title>B-WifiChallengeLab-LOGO</title><g id="Layer_2" data-name="Layer 2"><g id="Layer_1-2" data-name="Layer 1"><path class="cls-1" d="M141.39,64.33,111.08,166.58h-19L70.62,89.19,47.81,166.58,29,166.73,0,64.33H17.8L39,147.6,61.94,64.33H80.77l21.34,82.83,21.33-82.83Z"/><path class="cls-1" d="M156.1,71.69a10.74,10.74,0,0,1,7.65-18.39,10.24,10.24,0,0,1,7.5,3.08,11,11,0,0,1,0,15.31,10.21,10.21,0,0,1-7.5,3.09A10.39,10.39,0,0,1,156.1,71.69ZM172,85.52v81.06H155.22V85.52Z"/><path class="cls-1" d="M254.23,64.33V78h-43.4v30.16h33.84v13.68H210.83v44.73H194.06V64.33Z"/><path class="cls-1" d="M270.71,71.69a10.74,10.74,0,0,1,7.65-18.39,10.24,10.24,0,0,1,7.5,3.08,11,11,0,0,1,0,15.31,10.21,10.21,0,0,1-7.5,3.09A10.39,10.39,0,0,1,270.71,71.69ZM286.6,85.52v81.06H269.83V85.52Z"/><path class="cls-1" d="M310.06,88.31A49.81,49.81,0,0,1,329,69.7,55.84,55.84,0,0,1,384.36,71a45.71,45.71,0,0,1,18.47,22.73H382.67a27,27,0,0,0-11-12.06,32.72,32.72,0,0,0-16.33-4,35.71,35.71,0,0,0-18.1,4.56,31.75,31.75,0,0,0-12.43,13.09,42,42,0,0,0-4.49,19.86,42,42,0,0,0,4.49,19.87,32.17,32.17,0,0,0,12.43,13.16,35.26,35.26,0,0,0,18.1,4.64,32.72,32.72,0,0,0,16.33-4,27,27,0,0,0,11-12.07h20.16a45.29,45.29,0,0,1-18.47,22.66,53.67,53.67,0,0,1-29.05,7.94A52.86,52.86,0,0,1,329,160.77a50,50,0,0,1-18.91-18.61,52.33,52.33,0,0,1-7-26.93A52.32,52.32,0,0,1,310.06,88.31Z"/><path class="cls-1" d="M480.88,88.16a28.26,28.26,0,0,1,11.47,11.77q4.2,7.8,4.2,18.83v47.82H479.92V121.27q0-10.89-5.44-16.7t-14.86-5.81q-9.42,0-14.94,5.81t-5.51,16.7v45.31H422.39V57.71h16.78V94.93A28,28,0,0,1,450,87a36,36,0,0,1,14.34-2.8A34.11,34.11,0,0,1,480.88,88.16Z"/><path class="cls-1" d="M517.36,104.05a37,37,0,0,1,33.18-19.86,35.4,35.4,0,0,1,16.7,3.75,34,34,0,0,1,11.4,9.34V85.52h16.92v81.06H578.64V154.52A33.44,33.44,0,0,1,567,164.08a37.57,37.57,0,0,1-35.9-1.55,38.06,38.06,0,0,1-13.76-15,46.21,46.21,0,0,1-5.07-21.85A44.93,44.93,0,0,1,517.36,104.05Zm57.82,7.36a24.24,24.24,0,0,0-9-9.42,23.7,23.7,0,0,0-12.06-3.23A23.78,23.78,0,0,0,533,111.19a28.88,28.88,0,0,0-3.46,14.49A30.11,30.11,0,0,0,533,140.39a24.34,24.34,0,0,0,9.12,9.64,23.34,23.34,0,0,0,12,3.31,23.61,23.61,0,0,0,12.06-3.24,24,24,0,0,0,9-9.49A29.7,29.7,0,0,0,578.64,126,29.31,29.31,0,0,0,575.18,111.41Z"/><path class="cls-1" d="M634.4,57.71V166.58H617.63V57.71Z"/><path class="cls-1" d="M673.24,57.71V166.58H656.47V57.71Z"/><path class="cls-1" d="M769,132.3H707.08q.74,9.72,7.21,15.6a22.75,22.75,0,0,0,15.89,5.88q13.53,0,19.12-11.33h18.1a36.52,36.52,0,0,1-13.31,18.32q-9.65,7.14-23.91,7.14a41.33,41.33,0,0,1-20.82-5.23A37.11,37.11,0,0,1,694.94,148a44.92,44.92,0,0,1-5.22-22,46,46,0,0,1,5.07-22,35.76,35.76,0,0,1,14.27-14.64,42.52,42.52,0,0,1,21.12-5.15,41.36,41.36,0,0,1,20.45,5,35.36,35.36,0,0,1,14,14,42.31,42.31,0,0,1,5,20.82A52.71,52.71,0,0,1,769,132.3ZM752.1,118.76q-.15-9.26-6.62-14.85a23.67,23.67,0,0,0-16-5.6,21.53,21.53,0,0,0-14.86,5.52q-6.18,5.52-7.35,14.93Z"/><path class="cls-1" d="M844.12,88.16A28.3,28.3,0,0,1,856,99.93q4.26,7.8,4.27,18.83v47.82H843.61V121.27q0-10.89-5.45-16.7t-14.85-5.81q-9.42,0-14.94,5.81t-5.51,16.7v45.31H786.08V85.52h16.78v9.26A27.73,27.73,0,0,1,813.37,87,33.56,33.56,0,0,1,827,84.19,36.43,36.43,0,0,1,844.12,88.16Z"/><path class="cls-1" d="M930.93,87.94a32.2,32.2,0,0,1,11.4,9.34V85.52h16.92v82.39a41.38,41.38,0,0,1-4.71,19.93,34.07,34.07,0,0,1-13.61,13.76q-8.89,5-21.26,5-16.47,0-27.36-7.72a28.5,28.5,0,0,1-12.36-21h16.62a18.07,18.07,0,0,0,8.17,10.23A27.72,27.72,0,0,0,919.67,192q10.16,0,16.41-6.18t6.25-17.94V154.37a34.84,34.84,0,0,1-28.1,13.54,36.23,36.23,0,0,1-19.35-5.38,37.79,37.79,0,0,1-13.83-15A46.21,46.21,0,0,1,876,125.68a44.93,44.93,0,0,1,5.07-21.63,37,37,0,0,1,33.18-19.86A36,36,0,0,1,930.93,87.94Zm7.94,23.47a24.24,24.24,0,0,0-9-9.42,23.72,23.72,0,0,0-12.06-3.23,23.78,23.78,0,0,0-21.11,12.43,28.88,28.88,0,0,0-3.46,14.49,30.11,30.11,0,0,0,3.46,14.71,24.34,24.34,0,0,0,9.12,9.64,23.34,23.34,0,0,0,12,3.31,23.63,23.63,0,0,0,12.06-3.24,24,24,0,0,0,9-9.49A29.7,29.7,0,0,0,942.33,126,29.31,29.31,0,0,0,938.87,111.41Z"/><path class="cls-1" d="M1055,132.3H993.09q.74,9.72,7.21,15.6a22.75,22.75,0,0,0,15.89,5.88q13.53,0,19.12-11.33h18.1a36.48,36.48,0,0,1-13.32,18.32q-9.63,7.14-23.9,7.14a41.33,41.33,0,0,1-20.82-5.23A37.11,37.11,0,0,1,981,148a44.92,44.92,0,0,1-5.22-22,46,46,0,0,1,5.07-22,35.76,35.76,0,0,1,14.27-14.64,42.52,42.52,0,0,1,21.12-5.15,41.36,41.36,0,0,1,20.45,5,35.36,35.36,0,0,1,14,14,42.31,42.31,0,0,1,5,20.82A52.71,52.71,0,0,1,1055,132.3Zm-16.92-13.54q-.15-9.26-6.62-14.85a23.69,23.69,0,0,0-16-5.6,21.53,21.53,0,0,0-14.86,5.52q-6.18,5.52-7.36,14.93Z"/><polygon class="cls-1" points="990.22 29.59 1000.47 29.59 995.37 15 990.22 29.59"/><path class="cls-1" d="M1030,20.85a4.06,4.06,0,0,0,1.42-3.32,4.12,4.12,0,0,0-1.42-3.32,6,6,0,0,0-4-1.2h-6.37v9H1026A6.12,6.12,0,0,0,1030,20.85Z"/><path class="cls-1" d="M1026.4,26.2h-6.78V36h7a6.16,6.16,0,0,0,4.11-1.26,4.38,4.38,0,0,0,1.49-3.52,4.57,4.57,0,0,0-1.58-3.66A6.19,6.19,0,0,0,1026.4,26.2Z"/><path class="cls-1" d="M1033.57.08H966.69a22.13,22.13,0,0,0-22.07,22.07v4.67a22.13,22.13,0,0,0,22.07,22.07h66.88a22.13,22.13,0,0,0,22.07-22.07V22.15A22.13,22.13,0,0,0,1033.57.08ZM978.7,40.21H962.93V8.81h5.15V36.05H978.7Zm25.48,0-2.26-6.42H988.77l-2.26,6.42h-5.37L992.39,8.77h6l11.25,31.44Zm31.91-4.14a8.48,8.48,0,0,1-3.59,3,12.69,12.69,0,0,1-5.47,1.11h-12.56V8.81h12A12.94,12.94,0,0,1,1032,9.89a8.14,8.14,0,0,1,3.47,2.92,7.35,7.35,0,0,1,1.18,4.09,7,7,0,0,1-1.45,4.51,8.37,8.37,0,0,1-3.88,2.67,7,7,0,0,1,4.29,2.66,7.88,7.88,0,0,1,1.76,5A7.75,7.75,0,0,1,1036.09,36.07Z"/><path class="cls-1" d="M325.05,23.26a6,6,0,0,1-2,3,4.79,4.79,0,0,1-6.19-.61c-1.68-1.54-3.33-3.14-5.12-4.56a51.81,51.81,0,0,0-26.7-11.16q-26.13-3-45.1,15.34c-1.32,1.28-2.76,2.14-4.65,1.79a4.53,4.53,0,0,1-3.67-3.2A4.5,4.5,0,0,1,232.87,19c1.53-1.49,3.08-3,4.71-4.33a60.85,60.85,0,0,1,28.16-13.4C285-2.32,302.45,1.8,317.92,13.9a63,63,0,0,1,5.5,5,12.47,12.47,0,0,1,1.63,2.57Z"/><path class="cls-1" d="M279.51,17.69c12.16.25,23.53,5.2,32.73,15A4.71,4.71,0,0,1,306.31,40a11.26,11.26,0,0,1-1.59-1.5A35.7,35.7,0,0,0,282,27.35c-11.67-1.12-21.7,2.62-30,10.9-.45.45-.88.93-1.35,1.36a4.68,4.68,0,0,1-6.26,0,4.58,4.58,0,0,1-.65-6.27,36.57,36.57,0,0,1,7.52-6.91C259.29,20.68,268.29,17.76,279.51,17.69Z"/><path class="cls-1" d="M279,35.37A28,28,0,0,1,301.06,47a4.71,4.71,0,1,1-7.41,5.8,19.62,19.62,0,0,0-8.39-6.55,18.15,18.15,0,0,0-17.95,2.17,37.24,37.24,0,0,0-4.86,4.79,4.71,4.71,0,0,1-7.1-6.19,27.81,27.81,0,0,1,7-6.75A29.24,29.24,0,0,1,279,35.37Z"/><path class="cls-1" d="M278.21,74.32a10.62,10.62,0,1,1,10.62-10.55A10.59,10.59,0,0,1,278.21,74.32Z"/></g></g></svg>